<svg id="Layer_1" data-name="Layer 1" xmlns="http://www.w3.org/2000/svg" xmlns:xlink="http://www.w3.org/1999/xlink" viewBox="0 0 1500 588"><defs><style>.cls-1{fill:none;}.cls-2{fill:#fff;}.cls-3{clip-path:url(#clip-path);}</style><clipPath id="clip-path"><path class="cls-1" d="M275.61,550.47l1.63-25.42c15.05,1,28.51-.49,40-4.31a48.85,48.85,0,0,0,30.26-28.8,41,41,0,0,0-3.4-36.3c-6.54-11-20.8-19.07-43.59-24.68-5.51-1.36-11.41-2.56-17.66-3.83-21.34-4.33-45.52-9.24-68.89-23.28-37.49-22.51-61.15-60.22-64.92-103.47a135.24,135.24,0,0,1,46.41-114.19C229.21,156.91,274,145,318.36,153.61A153.3,153.3,0,0,1,425,233.45l-80.87,41.49a61.76,61.76,0,0,0-43-32.09c-9.85-1.9-28.93-2.88-46.06,12a44.33,44.33,0,0,0-15.44,37.64,42.59,42.59,0,0,0,21.16,33.45c10,6,24,8.84,40.2,12.13,6.86,1.4,14,2.84,21.28,4.64,47.66,11.72,80.37,33.48,100,66.49a132.51,132.51,0,0,1,10.45,114.47,138.9,138.9,0,0,1-13.44,26.81L530,538V253S511,34,261,46,36,313,64,396,189.23,545.94,275.61,550.47Z"/></clipPath></defs><path class="cls-2" d="M645.07,310.38c18.64,0,27.75-10.38,29.45-21.4,1.27-15.67-11.65-23.09-24.79-26.05l-18.85-4.66c-30.93-7.84-35.59-25.43-35.59-38.14,0-24.57,22.45-41.1,47.24-41.1,26.69,0,47,16.53,47,42.8h-19.7c0-14.62-11.65-23.94-27.54-23.94-14.2,0-27.33,8.68-27.33,22,0,6.36,2.33,15.89,20.76,20.34l19.07,4.66c27.33,7,41.94,22.46,39,45.76-2.54,21-20.13,38.13-48.73,38.13-29.87,0-51.05-21.39-51.05-44.27h19.7C613.93,297.25,626.64,310.38,645.07,310.38Z"/><path class="cls-2" d="M721.34,326.69H702.06V174h19.28v68.64c5.93-11.86,21.82-17,32.63-17,24.78,0,40.25,16.1,40,43.85v57.2H774.73V270.77c0-16.32-9.75-26.27-23.31-26.27s-30.08,7.62-30.08,28.81Z"/><path class="cls-2" d="M803,276.91c0-31.36,23.51-51.27,51.69-51.27s51.9,19.91,51.9,51.27-23.72,51.9-51.9,51.9S803,308.26,803,276.91Zm84.32,0c0-19.92-14.83-32.41-32.63-32.41S822,257,822,276.91c0,20.13,14.82,33.26,32.62,33.26S887.29,297,887.29,276.91Z"/><path class="cls-2" d="M1007.85,326.69,981,254l-26.06,72.66H939.21L901.5,227.76h20.55L946.84,297l24.79-69.28h18.64L1015.06,297l24.78-69.28h20.55l-36.65,98.93Z"/><path class="cls-2" d="M1108.06,225.64c15,0,28.81,5.72,38.14,15.89l-14.62,12.29a33.11,33.11,0,0,0-23.52-9.32c-17.79,0-33.26,12.49-33.26,32.41s15.47,33.26,33.26,33.26a32.61,32.61,0,0,0,23.52-9.75l14.83,12.29c-9.32,10.17-23.09,16.1-38.35,16.1-28.17,0-52.33-20.55-52.33-51.9S1079.89,225.64,1108.06,225.64Z"/><path class="cls-2" d="M1232.21,311.44c-6.57,11.23-21,17.37-34.75,17.37-27.11,0-50.2-20.33-50.2-51.69,0-31.57,23.09-51.48,50.2-51.48,13.78,0,28.18,5.72,34.75,17V227.76h19.07v98.93h-19.07Zm-33-66.94c-17.8,0-32.2,12.71-32.2,32.41,0,19.49,14.4,33,32.2,33,17.58,0,32.84-12.08,32.84-33C1232,255.72,1215.05,244.5,1199.16,244.5Z"/><path class="cls-2" d="M1262.51,250.85c1.48-14.41,16.73-25.21,34.32-25.21,16.73,0,32.62,7.84,34.32,28h-18.43c-1.06-7.41-7.84-11.22-15.47-11.22-7.2,0-13.35,3.6-14.83,8.89-.85,3.18-.85,5.51.21,7.84,1.91,4,6.57,6.15,11.65,7.63l14.62,3.6c20.55,5.09,25.64,17.59,25.64,28.81,0,18.43-17.8,29.66-38.35,29.66-17.79,0-36.23-11.44-36.86-31.77h17.58a15.33,15.33,0,0,0,8,11.22c4.24,2.55,9.32,3.82,15.68,3.39,8.9-.63,14.83-5.72,15-12.92s-5.93-10.8-13.13-12.5L1289,283.05C1271,278.18,1260.81,269.07,1262.51,250.85Z"/><path class="cls-2" d="M1437.67,284.54h-80.29c2.33,16.52,15.25,26.9,32,26.9,11.86,0,22.88-5.51,28.38-15.25,5.09,2.12,11.23,4.23,16.53,6.35-8.48,17.38-26.48,26.27-45.55,26.27-28.18,0-50.63-20.55-50.63-51.9s22.45-51.27,50.63-51.27,49.15,19.91,49.15,51.27C1437.88,279.24,1437.88,282.42,1437.67,284.54Zm-18.86-15.05C1416.48,253,1404.62,243,1388.73,243c-16.31,0-29,10-31.35,26.48Z"/><path class="cls-2" d="M714.35,371.66v146H683V459h-51.9v58.68H600.16v-146h30.93v59.53H683V371.66Z"/><path class="cls-2" d="M795.07,418.69h29.44v98.94H795.07V504.07a30.1,30.1,0,0,1-25.64,15.68c-22.24,0-39.19-13.77-39.19-41.95V418.69h29.45v52.76c0,15.67,10.8,19.7,17.58,19.7,9.11,0,17.8-5.09,17.8-20.13Z"/><path class="cls-2" d="M841.4,517.63V364.88h29.23v65.89c4.88-9.11,16.74-14.19,29-14.19,25.42,0,47.88,20.12,47.88,51.9,0,31.14-22.46,51.27-47.88,51.27-12.29,0-24.15-5.3-29-14.41v12.29Zm52.75-25.85c12.5,0,22.88-9.32,22.88-23.94,0-14.19-10.38-23.51-22.88-23.51-12.08,0-22.88,8.68-22.88,23.51C871.27,482,881.86,491.78,894.15,491.78Z"/><path class="cls-2" d="M981.91,421.21v7h-7.6v19.67H965.5V428.16h-7.56v-7Z"/><path class="cls-2" d="M994.47,421.21l5.81,13.9,5.81-13.9h9.3v26.62h-7.67V433.25l-4.56,12h-5.77l-4.56-12v14.58h-7.67V421.21Z"/><g class="cls-3"><path class="cls-2" d="M290.09,58.73h0A233.17,233.17,0,0,1,523.26,291.9v0A233.17,233.17,0,0,1,290.09,525.08H56.91a0,0,0,0,1,0,0V291.9A233.17,233.17,0,0,1,290.09,58.73Z" transform="translate(-1.82 581.99) rotate(-90)"/></g></svg>